<svg width="75" height="75" viewBox="0 0 75 75" fill="none" xmlns="http://www.w3.org/2000/svg">
<path fill-rule="evenodd" clip-rule="evenodd" d="M20.0615 69.4467C18.7904 69.4467 17.9959 68.4822 17.9959 66.9043C17.9959 59.4483 32.7903 42.5126 47.5487 28.157C45.0534 44.2797 28.5659 69.4467 20.0615 69.4467ZM73.0204 2.81793C70.9896 2.86687 66.8232 3.0245 63.1684 3.07694C61.8828 3.09537 61.3692 3.67296 61.534 4.5021C61.7282 5.47916 62.372 6.20262 63.3408 6.22821C64.5883 6.26126 66.2592 6.05294 68.4014 5.94759C63.5314 9.69473 57.6389 14.6199 51.5596 20.0997C50.8456 14.5867 48.2897 10.1776 43.2607 10.1776C35.9514 10.1776 28.6421 21.3005 25.4641 27.4975C25.1463 22.4128 22.9217 17.6458 18.1548 17.6458C8.24396 17.6458 0 40.1983 0 43.5731C0 44.7269 1.31949 45.6119 2.11398 45.6119C3.06737 45.6119 3.37722 45.1353 3.69502 44.023C7.82638 30.5166 14.0234 21.1416 18.1548 21.1416C20.2204 21.1416 21.8094 23.5251 21.8094 29.0865C21.8094 33.1785 21.1123 35.663 21.1123 36.6326C21.1123 38.1477 22.445 38.9382 23.2395 38.9382C24.1929 38.9382 24.5107 38.4615 24.9874 37.3492C29.7543 25.5908 37.5404 13.8323 43.1018 13.8323C45.8404 13.8323 47.7035 17.3304 47.8572 23.4858C31.1832 38.9552 14.3838 57.5964 14.3838 66.7667C14.3838 70.5833 16.4882 72.7836 19.9026 72.7836C32.1613 72.7836 51.347 42.3166 51.7646 24.1238C58.5866 17.7048 65.0916 12.0995 69.7729 8.53287C69.0521 10.3213 68.3256 12.0607 67.956 13.3591C67.6854 14.309 67.8502 15.3534 69.0176 15.8074C69.7559 16.0945 70.4139 15.6784 70.7032 14.8532C72.4624 9.83377 73.3688 7.77492 74.4448 4.90315C75.1486 3.02482 75.0734 2.76851 73.0204 2.81793Z" fill="#0B3B3C"/>
</svg>
